<svg width="1200" height="680" viewBox="0 0 1200 680" fill="none" xmlns="http://www.w3.org/2000/svg" role="img" aria-label="Repository field map">
<rect width="1200" height="680" rx="24" fill="#060806"/>
<rect x="26" y="26" width="1148" height="628" rx="22" fill="#15180F" stroke="#2D3322" stroke-width="3"/>
<text x="600" y="72" fill="#EFE1BE" font-family="Georgia, serif" font-size="38" font-weight="700" text-anchor="middle">REPOSITORY FIELD MAP</text>
<text x="600" y="102" fill="#A9A184" font-family="Courier New, monospace" font-size="14" text-anchor="middle">the farm split by what each repo is trying to grow</text>
<rect x="60" y="115" width="320" height="220" rx="20" fill="#0D110B" stroke="#2D3322" stroke-width="3"/><text x="84" y="157" fill="#E3C879" font-family="Georgia, serif" font-size="23" font-weight="700">AI Agents</text><circle cx="90" cy="188" r="5" fill="#91A164"/><text x="108" y="193" fill="#EFE1BE" font-family="Trebuchet MS, Verdana, sans-serif" font-size="15">Agentic Data Analysis</text><circle cx="90" cy="218" r="5" fill="#91A164"/><text x="108" y="223" fill="#EFE1BE" font-family="Trebuchet MS, Verdana, sans-serif" font-size="15">AI Society</text><rect x="420" y="115" width="320" height="220" rx="20" fill="#0D110B" stroke="#2D3322" stroke-width="3"/><text x="444" y="157" fill="#E3C879" font-family="Georgia, serif" font-size="23" font-weight="700">RAG and Research</text><circle cx="450" cy="188" r="5" fill="#91A164"/><text x="468" y="193" fill="#EFE1BE" font-family="Trebuchet MS, Verdana, sans-serif" font-size="15">Qanoon</text><circle cx="450" cy="218" r="5" fill="#91A164"/><text x="468" y="223" fill="#EFE1BE" font-family="Trebuchet MS, Verdana, sans-serif" font-size="15">PaperPal</text><rect x="780" y="115" width="320" height="220" rx="20" fill="#0D110B" stroke="#2D3322" stroke-width="3"/><text x="804" y="157" fill="#E3C879" font-family="Georgia, serif" font-size="23" font-weight="700">ML and Data</text><circle cx="810" cy="188" r="5" fill="#91A164"/><text x="828" y="193" fill="#EFE1BE" font-family="Trebuchet MS, Verdana, sans-serif" font-size="15">Islamabad AQI</text><circle cx="810" cy="218" r="5" fill="#91A164"/><text x="828" y="223" fill="#EFE1BE" font-family="Trebuchet MS, Verdana, sans-serif" font-size="15">Rainfall</text><circle cx="810" cy="248" r="5" fill="#91A164"/><text x="828" y="253" fill="#EFE1BE" font-family="Trebuchet MS, Verdana, sans-serif" font-size="15">ODR</text><circle cx="810" cy="278" r="5" fill="#91A164"/><text x="828" y="283" fill="#EFE1BE" font-family="Trebuchet MS, Verdana, sans-serif" font-size="15">Data Visualization</text><rect x="60" y="395" width="320" height="220" rx="20" fill="#0D110B" stroke="#2D3322" stroke-width="3"/><text x="84" y="437" fill="#E3C879" font-family="Georgia, serif" font-size="23" font-weight="700">Automation</text><circle cx="90" cy="468" r="5" fill="#91A164"/><text x="108" y="473" fill="#EFE1BE" font-family="Trebuchet MS, Verdana, sans-serif" font-size="15">Easy Terminal</text><circle cx="90" cy="498" r="5" fill="#91A164"/><text x="108" y="503" fill="#EFE1BE" font-family="Trebuchet MS, Verdana, sans-serif" font-size="15">Political News Alert Bot</text><circle cx="90" cy="528" r="5" fill="#91A164"/><text x="108" y="533" fill="#EFE1BE" font-family="Trebuchet MS, Verdana, sans-serif" font-size="15">pip-progress-bars</text><rect x="420" y="395" width="320" height="220" rx="20" fill="#0D110B" stroke="#2D3322" stroke-width="3"/><text x="444" y="437" fill="#E3C879" font-family="Georgia, serif" font-size="23" font-weight="700">Product and Backend</text><circle cx="450" cy="468" r="5" fill="#91A164"/><text x="468" y="473" fill="#EFE1BE" font-family="Trebuchet MS, Verdana, sans-serif" font-size="15">Alif</text><circle cx="450" cy="498" r="5" fill="#91A164"/><text x="468" y="503" fill="#EFE1BE" font-family="Trebuchet MS, Verdana, sans-serif" font-size="15">Password Dedy</text><circle cx="450" cy="528" r="5" fill="#91A164"/><text x="468" y="533" fill="#EFE1BE" font-family="Trebuchet MS, Verdana, sans-serif" font-size="15">Portfolio</text><rect x="780" y="395" width="320" height="220" rx="20" fill="#0D110B" stroke="#2D3322" stroke-width="3"/><text x="804" y="437" fill="#E3C879" font-family="Georgia, serif" font-size="23" font-weight="700">Core CS</text><circle cx="810" cy="468" r="5" fill="#91A164"/><text x="828" y="473" fill="#EFE1BE" font-family="Trebuchet MS, Verdana, sans-serif" font-size="15">DSA</text><circle cx="810" cy="498" r="5" fill="#91A164"/><text x="828" y="503" fill="#EFE1BE" font-family="Trebuchet MS, Verdana, sans-serif" font-size="15">Facial Verification</text><circle cx="810" cy="528" r="5" fill="#91A164"/><text x="828" y="533" fill="#EFE1BE" font-family="Trebuchet MS, Verdana, sans-serif" font-size="15">Mario RL</text><circle cx="810" cy="558" r="5" fill="#91A164"/><text x="828" y="563" fill="#EFE1BE" font-family="Trebuchet MS, Verdana, sans-serif" font-size="15">Sentiment Analysis</text>
</svg>