<svg width="1200" height="650" viewBox="0 0 1200 650" fill="none" xmlns="http://www.w3.org/2000/svg" role="img" aria-label="Tech crop rows">
<rect width="1200" height="650" rx="24" fill="#060806"/>
<rect x="26" y="26" width="1148" height="598" rx="22" fill="#15180F" stroke="#2D3322" stroke-width="3"/>
<text x="600" y="76" fill="#EFE1BE" font-family="Georgia, serif" font-size="38" font-weight="700" text-anchor="middle">TECH CROP ROWS</text>
<text x="600" y="104" fill="#A9A184" font-family="Courier New, monospace" font-size="14" text-anchor="middle">areas I work with most</text>
<text x="95" y="137" fill="#EFE1BE" font-family="Trebuchet MS, Verdana, sans-serif" font-size="18">Python</text><rect x="270" y="120" width="760" height="24" rx="12" fill="#1D2114" stroke="#2D3322" stroke-width="2"/><rect x="270" y="120" width="729" height="24" rx="12" fill="#68794A"/><text x="1050" y="138" fill="#E3C879" font-family="Courier New, monospace" font-size="15">96</text><text x="95" y="185" fill="#EFE1BE" font-family="Trebuchet MS, Verdana, sans-serif" font-size="18">LangChain</text><rect x="270" y="168" width="760" height="24" rx="12" fill="#1D2114" stroke="#2D3322" stroke-width="2"/><rect x="270" y="168" width="684" height="24" rx="12" fill="#68794A"/><text x="1050" y="186" fill="#E3C879" font-family="Courier New, monospace" font-size="15">90</text><text x="95" y="233" fill="#EFE1BE" font-family="Trebuchet MS, Verdana, sans-serif" font-size="18">LangGraph</text><rect x="270" y="216" width="760" height="24" rx="12" fill="#1D2114" stroke="#2D3322" stroke-width="2"/><rect x="270" y="216" width="638" height="24" rx="12" fill="#68794A"/><text x="1050" y="234" fill="#E3C879" font-family="Courier New, monospace" font-size="15">84</text><text x="95" y="281" fill="#EFE1BE" font-family="Trebuchet MS, Verdana, sans-serif" font-size="18">FastAPI</text><rect x="270" y="264" width="760" height="24" rx="12" fill="#1D2114" stroke="#2D3322" stroke-width="2"/><rect x="270" y="264" width="623" height="24" rx="12" fill="#68794A"/><text x="1050" y="282" fill="#E3C879" font-family="Courier New, monospace" font-size="15">82</text><text x="95" y="329" fill="#EFE1BE" font-family="Trebuchet MS, Verdana, sans-serif" font-size="18">Supabase</text><rect x="270" y="312" width="760" height="24" rx="12" fill="#1D2114" stroke="#2D3322" stroke-width="2"/><rect x="270" y="312" width="592" height="24" rx="12" fill="#68794A"/><text x="1050" y="330" fill="#E3C879" font-family="Courier New, monospace" font-size="15">78</text><text x="95" y="377" fill="#EFE1BE" font-family="Trebuchet MS, Verdana, sans-serif" font-size="18">Streamlit</text><rect x="270" y="360" width="760" height="24" rx="12" fill="#1D2114" stroke="#2D3322" stroke-width="2"/><rect x="270" y="360" width="577" height="24" rx="12" fill="#68794A"/><text x="1050" y="378" fill="#E3C879" font-family="Courier New, monospace" font-size="15">76</text><text x="95" y="425" fill="#EFE1BE" font-family="Trebuchet MS, Verdana, sans-serif" font-size="18">ML</text><rect x="270" y="408" width="760" height="24" rx="12" fill="#1D2114" stroke="#2D3322" stroke-width="2"/><rect x="270" y="408" width="608" height="24" rx="12" fill="#68794A"/><text x="1050" y="426" fill="#E3C879" font-family="Courier New, monospace" font-size="15">80</text><text x="95" y="473" fill="#EFE1BE" font-family="Trebuchet MS, Verdana, sans-serif" font-size="18">RAG</text><rect x="270" y="456" width="760" height="24" rx="12" fill="#1D2114" stroke="#2D3322" stroke-width="2"/><rect x="270" y="456" width="668" height="24" rx="12" fill="#68794A"/><text x="1050" y="474" fill="#E3C879" font-family="Courier New, monospace" font-size="15">88</text><text x="95" y="521" fill="#EFE1BE" font-family="Trebuchet MS, Verdana, sans-serif" font-size="18">Automation</text><rect x="270" y="504" width="760" height="24" rx="12" fill="#1D2114" stroke="#2D3322" stroke-width="2"/><rect x="270" y="504" width="653" height="24" rx="12" fill="#68794A"/><text x="1050" y="522" fill="#E3C879" font-family="Courier New, monospace" font-size="15">86</text><text x="95" y="569" fill="#EFE1BE" font-family="Trebuchet MS, Verdana, sans-serif" font-size="18">Data Analysis</text><rect x="270" y="552" width="760" height="24" rx="12" fill="#1D2114" stroke="#2D3322" stroke-width="2"/><rect x="270" y="552" width="623" height="24" rx="12" fill="#68794A"/><text x="1050" y="570" fill="#E3C879" font-family="Courier New, monospace" font-size="15">82</text>
</svg>